<svg width="20" height="30" viewBox="0 0 20 30" fill="none" xmlns="http://www.w3.org/2000/svg">
<g clip-path="url(#clip0_1110_87675)">
<path d="M0.714433 3.39332C2.02196 3.86403 3.15586 4.20295 4.22908 4.67575C5.03452 5.0314 5.7228 4.95399 6.53033 4.65273C10.3734 3.20085 14.2374 1.80336 18.0952 0.391228C18.4467 0.26152 18.8086 0.156919 19.3002 1.52588e-05C19.3002 1.80755 19.3232 3.50838 19.2709 5.20712C19.2709 5.44771 18.932 5.79708 18.6747 5.89332C14.3957 7.49025 10.1119 9.06417 5.82322 10.6151C5.53677 10.7163 5.2258 10.725 4.9341 10.6402C3.71234 10.2322 2.49686 9.80336 1.30648 9.31173C1.1642 9.24428 1.03928 9.14507 0.941352 9.02176C0.843425 8.89844 0.7751 8.7543 0.741631 8.60043C0.68933 6.93516 0.714433 5.2678 0.714433 3.39332Z" fill="currentColor"/>
<path d="M0.714429 22.7071C2.07217 23.1988 3.26045 23.6841 4.48012 24.0419C5.02456 24.211 5.60684 24.2153 6.15376 24.0544C10.091 22.6611 14.0052 21.205 17.9257 19.7699C18.3107 19.6276 18.7019 19.5021 19.2793 19.3055C19.2793 21.1716 19.3002 22.8933 19.2521 24.613C19.2521 24.8222 18.9215 25.1297 18.681 25.2197C14.4062 26.8055 10.1252 28.3717 5.83786 29.9184C5.51726 30.02 5.17311 30.02 4.8525 29.9184C3.66422 29.5251 2.48849 29.0921 1.32531 28.6276C1.08054 28.5293 0.743716 28.2406 0.739532 28.0335C0.693507 26.3096 0.714429 24.5795 0.714429 22.7071Z" fill="currentColor"/>
<path d="M15.6559 10.9937C15.6559 12.8096 15.6789 14.4791 15.6308 16.1465C15.6041 16.3011 15.5415 16.4472 15.4482 16.5733C15.3548 16.6994 15.2332 16.8018 15.0931 16.8724C11.9983 18.0384 8.89297 19.1758 5.77721 20.2845C5.48886 20.3776 5.17853 20.3776 4.89018 20.2845C3.70189 19.885 2.51989 19.4624 1.36089 18.9896C1.09729 18.8829 0.75629 18.5481 0.747921 18.3096C0.69562 16.6109 0.720724 14.9122 0.720724 13.0481C2.00524 13.5168 3.16005 13.885 4.27721 14.3599C5.0429 14.6862 5.71236 14.6339 6.47386 14.341C9.17261 13.3076 11.8923 12.3306 14.6057 11.3368C14.8797 11.2239 15.1768 11.1423 15.6559 10.9937Z" fill="currentColor"/>
</g>
<defs>
<clipPath id="clip0_1110_87675">
<rect width="18.5879" height="30" fill="white" transform="translate(0.706066)"/>
</clipPath>
</defs>
</svg>

